<?xml version="1.0" encoding="utf-8"?><!-- Uploaded to: SVG Repo, www.svgrepo.com, Generator: SVG Repo Mixer Tools -->
<svg fill="#000000" width="800px" height="800px" viewBox="0 0 24 24" id="airplane-mode" data-name="Flat Color" xmlns="http://www.w3.org/2000/svg" class="icon flat-color"><path id="primary" d="M19.58,12.08,14,8.16V4a2,2,0,0,0-4,0V8.16L4.42,12.08a1,1,0,0,0-.42.81v.93a1,1,0,0,0,1.16,1L10,14v3.62l-1.71,1.7A1.05,1.05,0,0,0,8,20v1a1,1,0,0,0,1.45.89L12,20.62l2.55,1.27A1,1,0,0,0,16,21V20a1.05,1.05,0,0,0-.29-.71L14,17.62V14l4.84.81a1,1,0,0,0,1.16-1v-.93A1,1,0,0,0,19.58,12.08Z" style="fill: rgb(0, 0, 0);"></path></svg>